<svg xmlns="http://www.w3.org/2000/svg" viewBox="0 0 124 33" fill="none">
  <path d="M35.672 8.147h-6.172c-.422 0-.781.307-.847.723l-2.495 15.832c-.049.312.19.594.506.594h3.16c.294 0 .544-.214.59-.505l.707-4.484c.066-.416.425-.723.847-.723h1.952c4.068 0 6.415-1.97 7.029-5.873.277-1.707.011-3.047-.79-3.983-.882-1.033-2.444-1.581-4.487-1.581zm.713 5.799c-.337 2.215-2.028 2.215-3.666 2.215h-.931l.654-4.139c.039-.248.252-.43.504-.43h.427c1.115 0 2.169 0 2.714.636.325.381.424.944.298 1.718z" fill="#fff"/>
  <path d="M54.843 13.873h-3.166c-.252 0-.465.182-.504.43l-.129.815-.204-.296c-.632-.918-2.044-1.226-3.447-1.226-3.224 0-5.977 2.442-6.515 5.87-.279 1.708.117 3.339 1.089 4.478.893 1.047 2.167 1.483 3.684 1.483 2.604 0 4.048-1.673 4.048-1.673l-.131.813c-.049.312.19.594.506.594h2.853c.422 0 .781-.307.847-.723l1.597-10.124c.05-.311-.19-.594-.506-.594h-.022zm-4.402 5.75c-.282 1.67-1.607 2.792-3.296 2.792-847 0-1.524-.273-1.957-.789-.428-.511-.59-1.24-.454-2.051.262-1.653 1.607-2.808 3.275-2.808.831 0 1.5.273 1.941.793.444.525.618 1.258.491 2.063z" fill="#fff"/>
  <path d="M75.252 13.873h-3.173c-.304 0-.589.151-.759.404l-4.386 6.458-1.858-6.205c-.116-.39-.471-.657-.878-.657h-3.119c-.377 0-.643.37-.524.727l3.499 10.264-3.288 4.638c-.258.364.002.866.444.866h3.17c.301 0 .584-.148.754-.397l10.562-15.244c.254-.367-.006-.864-.444-.864z" fill="#fff"/>
  <path d="M87.769 8.147h-6.172c-.422 0-.781.307-.847.723l-2.495 15.832c-.049.312.19.594.506.594h3.16c.422 0 .781-.307.847-.723l.673-4.266c.066-.416.425-.723.847-.723h1.952c4.068 0 6.415-1.97 7.029-5.873.277-1.707.011-3.047-.79-3.983-.882-1.033-2.444-1.581-4.487-1.581h-.223zm.713 5.799c-.337 2.215-2.028 2.215-3.666 2.215h-.931l.654-4.139c.039-.248.252-.43.504-.43h.427c1.115 0 2.169 0 2.714.636.325.381.424.944.298 1.718z" fill="#fff"/>
  <path d="M106.94 13.873h-3.166c-.252 0-.465.182-.504.43l-.129.815-.204-.296c-.632-.918-2.044-1.226-3.447-1.226-3.224 0-5.977 2.442-6.515 5.87-.279 1.708.117 3.339 1.089 4.478.893 1.047 2.167 1.483 3.684 1.483 2.604 0 4.048-1.673 4.048-1.673l-.131.813c-.049.312.19.594.506.594h2.853c.422 0 .781-.307.847-.723l1.597-10.124c.05-.311-.19-.594-.506-.594h-.022zm-4.402 5.75c-.282 1.67-1.607 2.792-3.296 2.792-.847 0-1.524-.273-1.957-.789-.428-.511-.59-1.24-.454-2.051.262-1.653 1.607-2.808 3.275-2.808.831 0 1.5.273 1.941.793.444.525.618 1.258.491 2.063z" fill="#fff"/>
  <path d="M11.611 7.834c-.277-1.707.011-3.047.79-3.983C13.283 2.818 14.845 2.27 16.888 2.27h6.172c.422 0 .781.307.847.723l2.495 15.832c.049.312-.19.594-.506.594h-3.16c-.294 0-.544-.214-.59-.505l-.707-4.484c-.066-.416-.425-.723-.847-.723h-1.952c-4.068 0-6.415-1.97-7.029-5.873z" fill="#fff"/>
  <path d="M12.324 13.633c.337-2.215 2.028-2.215 3.666-2.215h.931l-.654 4.139c-.039.248-.252.43-.504.43h-.427c-1.115 0-2.169 0-2.714-.636-.325-.381-.424-.944-.298-1.718z" fill="#fff"/>
</svg>