<svg xmlns="http://www.w3.org/2000/svg" viewBox="0 0 126 32" fill="none">
  <path d="M18.007 9.297c0-4.099-3.096-6.149-9.289-6.149H0v25.704h5.373v-7.257h3.345c6.193 0 9.289-2.05 9.289-6.149v-6.149zm-5.373 6.149c0 1.709-1.29 2.563-3.87 2.563H5.373v-11.35h3.391c2.58 0 3.87.855 3.87 2.564v6.223zM37.376 3.148l-5.832 11.35-5.832-11.35h-5.832l8.75 16.552v9.152h5.832v-9.152l8.75-16.552h-5.836zM58.55 22.852V3.148h-5.373v19.704c0 4.099 3.096 6.149 9.289 6.149h3.345v-4.586h-3.345c-2.58 0-3.87-.855-3.87-2.563h-.046zM89.145 3.148h-5.373v25.704h15.121v-4.586H89.145V3.148zM126 15.446v-2.563c0-4.099-3.096-6.149-9.289-6.149h-8.718v25.704h5.373V22.852h3.345c6.193 0 9.289-2.05 9.289-6.149v-1.257zm-5.373 1.257c0 1.709-1.29 2.563-3.87 2.563h-3.391V7.734h3.391c2.58 0 3.87.855 3.87 2.564v6.405z" fill="#fff"/>
</svg>