<svg xmlns="http://www.w3.org/2000/svg" width="100" height="40" viewBox="0 0 100 40">
  <path d="M12.8 9.6c0-1.1.9-1.6 2.3-1.6 2.1 0 4.7.6 6.7 1.7v-6.2c-2.2-.9-4.4-1.2-6.7-1.2-5.5 0-9.2 2.9-9.2 7.7 0 7.5 10.3 6.3 10.3 9.5 0 1.3-1.1 1.7-2.6 1.7-2.3 0-5.2-.9-7.5-2.2v6.3c2.6 1.1 5.2 1.6 7.5 1.6 5.7 0 9.6-2.8 9.6-7.7-.1-8.1-10.4-6.6-10.4-9.6z" fill="#6772E5"/>
  <path d="M35.3 18.8c0-5.9-2.9-10.5-8.4-10.5s-8.4 4.6-8.4 10.5c0 6.9 3.7 10.3 9.1 10.3 2.6 0 4.6-.6 6.1-1.4v-5.2c-1.5.7-3.2 1.2-5.4 1.2-2.1 0-4-.8-4.2-3.4h11.2v-1.5zm-11.3-2.2c0-2.6 1.6-3.7 3-3.7s2.9 1.1 2.9 3.7h-5.9z" fill="#6772E5"/>
  <path d="M46.7 8.3c-2.1 0-3.4.9-4.2 1.6l-.3-1.3h-5.8v27.7l6.6-1.4.1-6.7c.8.6 2 1.4 3.8 1.4 3.8 0 7.3-3.1 7.3-10.8-.1-6.8-3.6-10.5-7.5-10.5zm-1.3 16c-1.3 0-2-.5-2.6-.9l-.1-7.2c.6-.5 1.4-1 2.6-1 2 0 3.4 2.2 3.4 5.6.1 3.3-1.2 5.5-3.3 5.5z" fill="#6772E5"/>
  <path d="M66.1 18.8c0-5.9-2.9-10.5-8.4-10.5s-8.4 4.6-8.4 10.5c0 6.9 3.7 10.3 9.1 10.3 2.6 0 4.6-.6 6.1-1.4v-5.2c-1.5.7-3.2 1.2-5.4 1.2-2.1 0-4-.8-4.2-3.4h11.2v-1.5zm-11.3-2.2c0-2.6 1.6-3.7 3-3.7s2.9 1.1 2.9 3.7h-5.9z" fill="#6772E5"/>
  <path d="M83.1 12.8l-.4-4.2h-5.8v19.6h6.6V15.9c1.6-2 4.2-1.6 5-.9v-6.1c-.8-.7-3.8-1.2-5.4 3.9z" fill="#6772E5"/>
  <path d="M95.5 2.3l-6.6 1.4-.1 19.4c0 3.9 2.9 6 6.8 6 2.1 0 3.7-.4 4.6-.8v-5.2c-.8.3-4.3 1.3-4.3-2V13h4.3V8.6h-4.3l-.4-6.3z" fill="#6772E5"/>
</svg>